<?xml version="1.0" encoding="utf-8" standalone="no"?>
<!DOCTYPE svg PUBLIC "-//W3C//DTD SVG 1.1//EN"
  "http://www.w3.org/Graphics/SVG/1.1/DTD/svg11.dtd">
<svg xmlns:xlink="http://www.w3.org/1999/xlink" width="710.612311pt" height="277.97115pt" viewBox="0 0 710.612311 277.97115" xmlns="http://www.w3.org/2000/svg" version="1.1">
 <metadata>
  <rdf:RDF xmlns:dc="http://purl.org/dc/elements/1.1/" xmlns:cc="http://creativecommons.org/ns#" xmlns:rdf="http://www.w3.org/1999/02/22-rdf-syntax-ns#">
   <cc:Work>
    <dc:type rdf:resource="http://purl.org/dc/dcmitype/StillImage"/>
    <dc:date>2025-01-07T15:00:03.255135</dc:date>
    <dc:format>image/svg+xml</dc:format>
    <dc:creator>
     <cc:Agent>
      <dc:title>Matplotlib v3.8.0, https://matplotlib.org/</dc:title>
     </cc:Agent>
    </dc:creator>
   </cc:Work>
  </rdf:RDF>
 </metadata>
 <defs>
  <style type="text/css">*{stroke-linejoin: round; stroke-linecap: butt}</style>
 </defs>
 <g id="figure_1">
  <g id="patch_1">
   <path d="M 0 277.97115 
L 710.612311 277.97115 
L 710.612311 0 
L 0 0 
z
" style="fill: #ffffff"/>
  </g>
  <g id="axes_1">
   <g id="patch_2">
    <path d="M 47.8965 237.2502 
L 392.363133 237.2502 
L 392.363133 21.9534 
L 47.8965 21.9534 
z
" style="fill: #ffffff"/>
   </g>
   <g id="matplotlib.axis_1">
    <g id="xtick_1">
     <g id="text_1">
      <!-- &lt;0.3 -->
      <g style="fill: #484848" transform="translate(40.915049 253.57415) scale(0.1056 -0.1056)">
       <defs>
        <path id="Verdana-3c" d="M 4400 241 
L 794 1844 
L 794 2231 
L 4400 3834 
L 4400 3272 
L 1556 2038 
L 4400 803 
L 4400 241 
z
" transform="scale(0.015625)"/>
        <path id="Verdana-30" d="M 3647 2328 
Q 3647 1075 3255 489 
Q 2863 -97 2038 -97 
Q 1200 -97 814 497 
Q 428 1091 428 2322 
Q 428 3563 818 4155 
Q 1209 4747 2038 4747 
Q 2875 4747 3261 4145 
Q 3647 3544 3647 2328 
z
M 2825 909 
Q 2934 1163 2973 1505 
Q 3013 1847 3013 2328 
Q 3013 2803 2973 3153 
Q 2934 3503 2822 3747 
Q 2713 3988 2523 4109 
Q 2334 4231 2038 4231 
Q 1744 4231 1551 4109 
Q 1359 3988 1247 3741 
Q 1141 3509 1102 3137 
Q 1063 2766 1063 2322 
Q 1063 1834 1097 1506 
Q 1131 1178 1244 919 
Q 1347 675 1536 547 
Q 1725 419 2038 419 
Q 2331 419 2525 541 
Q 2719 663 2825 909 
z
" transform="scale(0.015625)"/>
        <path id="Verdana-2e" d="M 1538 0 
L 791 0 
L 791 891 
L 1538 891 
L 1538 0 
z
" transform="scale(0.015625)"/>
        <path id="Verdana-33" d="M 3244 2241 
Q 3394 2106 3491 1903 
Q 3588 1700 3588 1378 
Q 3588 1059 3472 793 
Q 3356 528 3147 331 
Q 2913 113 2595 8 
Q 2278 -97 1900 -97 
Q 1513 -97 1138 -4 
Q 763 88 522 197 
L 522 850 
L 569 850 
Q 834 675 1193 559 
Q 1553 444 1888 444 
Q 2084 444 2306 509 
Q 2528 575 2666 703 
Q 2809 841 2879 1006 
Q 2950 1172 2950 1425 
Q 2950 1675 2870 1839 
Q 2791 2003 2650 2097 
Q 2509 2194 2309 2230 
Q 2109 2266 1878 2266 
L 1597 2266 
L 1597 2784 
L 1816 2784 
Q 2291 2784 2573 2982 
Q 2856 3181 2856 3563 
Q 2856 3731 2784 3857 
Q 2713 3984 2584 4066 
Q 2450 4147 2297 4178 
Q 2144 4209 1950 4209 
Q 1653 4209 1318 4103 
Q 984 3997 688 3803 
L 656 3803 
L 656 4456 
Q 878 4566 1248 4658 
Q 1619 4750 1966 4750 
Q 2306 4750 2565 4687 
Q 2825 4625 3034 4488 
Q 3259 4338 3375 4125 
Q 3491 3913 3491 3628 
Q 3491 3241 3217 2952 
Q 2944 2663 2572 2588 
L 2572 2544 
Q 2722 2519 2915 2439 
Q 3109 2359 3244 2241 
z
" transform="scale(0.015625)"/>
       </defs>
       <use xlink:href="#Verdana-3c"/>
       <use xlink:href="#Verdana-30" x="81.835938"/>
       <use xlink:href="#Verdana-2e" x="145.410156"/>
       <use xlink:href="#Verdana-33" x="181.787109"/>
      </g>
     </g>
    </g>
    <g id="xtick_2">
     <g id="text_2">
      <!-- 0.3-1 -->
      <g style="fill: #484848" transform="translate(118.090274 253.57415) scale(0.1056 -0.1056)">
       <defs>
        <path id="Verdana-2d" d="M 2428 1753 
L 478 1753 
L 478 2319 
L 2428 2319 
L 2428 1753 
z
" transform="scale(0.015625)"/>
        <path id="Verdana-31" d="M 3388 0 
L 869 0 
L 869 475 
L 1838 475 
L 1838 3594 
L 869 3594 
L 869 4019 
Q 1066 4019 1291 4051 
Q 1516 4084 1631 4147 
Q 1775 4225 1858 4345 
Q 1941 4466 1953 4669 
L 2438 4669 
L 2438 475 
L 3388 475 
L 3388 0 
z
" transform="scale(0.015625)"/>
       </defs>
       <use xlink:href="#Verdana-30"/>
       <use xlink:href="#Verdana-2e" x="63.574219"/>
       <use xlink:href="#Verdana-33" x="99.951172"/>
       <use xlink:href="#Verdana-2d" x="163.525391"/>
       <use xlink:href="#Verdana-31" x="208.935547"/>
      </g>
     </g>
    </g>
    <g id="xtick_3">
     <g id="text_3">
      <!-- 1-3 -->
      <g style="fill: #484848" transform="translate(180.729481 253.57415) scale(0.1056 -0.1056)">
       <use xlink:href="#Verdana-31"/>
       <use xlink:href="#Verdana-2d" x="63.574219"/>
       <use xlink:href="#Verdana-33" x="108.984375"/>
      </g>
     </g>
    </g>
    <g id="xtick_4">
     <g id="text_4">
      <!-- 3-10 -->
      <g style="fill: #484848" transform="translate(236.122974 253.57415) scale(0.1056 -0.1056)">
       <use xlink:href="#Verdana-33"/>
       <use xlink:href="#Verdana-2d" x="63.574219"/>
       <use xlink:href="#Verdana-31" x="108.984375"/>
       <use xlink:href="#Verdana-30" x="172.558594"/>
      </g>
     </g>
    </g>
    <g id="xtick_5">
     <g id="text_5">
      <!-- 10-30 -->
      <g style="fill: #484848" transform="translate(299.740875 253.57415) scale(0.1056 -0.1056)">
       <use xlink:href="#Verdana-31"/>
       <use xlink:href="#Verdana-30" x="63.574219"/>
       <use xlink:href="#Verdana-2d" x="127.148438"/>
       <use xlink:href="#Verdana-33" x="172.558594"/>
       <use xlink:href="#Verdana-30" x="236.132812"/>
      </g>
     </g>
    </g>
    <g id="xtick_6">
     <g id="text_6">
      <!-- &gt;30 -->
      <g style="fill: #484848" transform="translate(366.450865 253.57415) scale(0.1056 -0.1056)">
       <defs>
        <path id="Verdana-3e" d="M 4444 1844 
L 838 241 
L 838 803 
L 3681 2038 
L 838 3272 
L 838 3834 
L 4444 2231 
L 4444 1844 
z
" transform="scale(0.015625)"/>
       </defs>
       <use xlink:href="#Verdana-3e"/>
       <use xlink:href="#Verdana-33" x="81.835938"/>
       <use xlink:href="#Verdana-30" x="145.410156"/>
      </g>
     </g>
    </g>
    <g id="xtick_7"/>
    <g id="xtick_8"/>
    <g id="xtick_9"/>
    <g id="xtick_10"/>
    <g id="xtick_11"/>
    <g id="xtick_12"/>
    <g id="xtick_13"/>
    <g id="xtick_14"/>
    <g id="xtick_15"/>
    <g id="xtick_16"/>
    <g id="xtick_17"/>
    <g id="xtick_18"/>
    <g id="xtick_19"/>
    <g id="xtick_20"/>
    <g id="xtick_21"/>
    <g id="xtick_22"/>
    <g id="xtick_23"/>
    <g id="xtick_24"/>
    <g id="text_7">
     <!-- Distance between students's homes (km) -->
     <g style="fill: #484848" transform="translate(47.8965 268.45275) scale(0.1152 -0.1152)">
      <defs>
       <path id="Verdana-44" d="M 4556 2322 
Q 4556 1688 4279 1172 
Q 4003 656 3544 372 
Q 3225 175 2833 87 
Q 2441 0 1800 0 
L 625 0 
L 625 4653 
L 1788 4653 
Q 2469 4653 2870 4554 
Q 3272 4456 3550 4284 
Q 4025 3988 4290 3494 
Q 4556 3000 4556 2322 
z
M 3909 2331 
Q 3909 2878 3718 3253 
Q 3528 3628 3150 3844 
Q 2875 4000 2565 4061 
Q 2256 4122 1825 4122 
L 1244 4122 
L 1244 531 
L 1825 531 
Q 2272 531 2605 597 
Q 2938 663 3216 841 
Q 3563 1063 3736 1425 
Q 3909 1788 3909 2331 
z
" transform="scale(0.015625)"/>
       <path id="Verdana-69" d="M 1209 4075 
L 547 4075 
L 547 4684 
L 1209 4684 
L 1209 4075 
z
M 1172 0 
L 584 0 
L 584 3491 
L 1172 3491 
L 1172 0 
z
" transform="scale(0.015625)"/>
       <path id="Verdana-73" d="M 3072 1006 
Q 3072 528 2676 222 
Q 2281 -84 1597 -84 
Q 1209 -84 886 8 
Q 563 100 344 209 
L 344 869 
L 375 869 
Q 653 659 993 536 
Q 1334 413 1647 413 
Q 2034 413 2253 538 
Q 2472 663 2472 931 
Q 2472 1138 2353 1244 
Q 2234 1350 1897 1425 
Q 1772 1453 1570 1490 
Q 1369 1528 1203 1572 
Q 744 1694 551 1930 
Q 359 2166 359 2509 
Q 359 2725 448 2915 
Q 538 3106 719 3256 
Q 894 3403 1164 3489 
Q 1434 3575 1769 3575 
Q 2081 3575 2401 3498 
Q 2722 3422 2934 3313 
L 2934 2684 
L 2903 2684 
Q 2678 2850 2356 2964 
Q 2034 3078 1725 3078 
Q 1403 3078 1181 2954 
Q 959 2831 959 2588 
Q 959 2372 1094 2263 
Q 1225 2153 1519 2084 
Q 1681 2047 1882 2009 
Q 2084 1972 2219 1941 
Q 2628 1847 2850 1619 
Q 3072 1388 3072 1006 
z
" transform="scale(0.015625)"/>
       <path id="Verdana-74" d="M 2391 31 
Q 2225 -13 2029 -41 
Q 1834 -69 1681 -69 
Q 1147 -69 869 218 
Q 591 506 591 1141 
L 591 2997 
L 194 2997 
L 194 3491 
L 591 3491 
L 591 4494 
L 1178 4494 
L 1178 3491 
L 2391 3491 
L 2391 2997 
L 1178 2997 
L 1178 1406 
Q 1178 1131 1190 976 
Q 1203 822 1278 688 
Q 1347 563 1467 505 
Q 1588 447 1834 447 
Q 1978 447 2134 489 
Q 2291 531 2359 559 
L 2391 559 
L 2391 31 
z
" transform="scale(0.015625)"/>
       <path id="Verdana-61" d="M 3291 0 
L 2706 0 
L 2706 372 
Q 2628 319 2495 223 
Q 2363 128 2238 72 
Q 2091 0 1900 -48 
Q 1709 -97 1453 -97 
Q 981 -97 653 215 
Q 325 528 325 1013 
Q 325 1409 495 1654 
Q 666 1900 981 2041 
Q 1300 2181 1747 2231 
Q 2194 2281 2706 2306 
L 2706 2397 
Q 2706 2597 2636 2728 
Q 2566 2859 2434 2934 
Q 2309 3006 2134 3031 
Q 1959 3056 1769 3056 
Q 1538 3056 1253 2995 
Q 969 2934 666 2819 
L 634 2819 
L 634 3416 
Q 806 3463 1131 3519 
Q 1456 3575 1772 3575 
Q 2141 3575 2414 3514 
Q 2688 3453 2888 3306 
Q 3084 3163 3187 2934 
Q 3291 2706 3291 2369 
L 3291 0 
z
M 2706 859 
L 2706 1831 
Q 2438 1816 2073 1784 
Q 1709 1753 1497 1694 
Q 1244 1622 1087 1470 
Q 931 1319 931 1053 
Q 931 753 1112 601 
Q 1294 450 1666 450 
Q 1975 450 2231 570 
Q 2488 691 2706 859 
z
" transform="scale(0.015625)"/>
       <path id="Verdana-6e" d="M 3497 0 
L 2909 0 
L 2909 1988 
Q 2909 2228 2881 2439 
Q 2853 2650 2778 2769 
Q 2700 2900 2553 2964 
Q 2406 3028 2172 3028 
Q 1931 3028 1668 2909 
Q 1406 2791 1166 2606 
L 1166 0 
L 578 0 
L 578 3491 
L 1166 3491 
L 1166 3103 
Q 1441 3331 1734 3459 
Q 2028 3588 2338 3588 
Q 2903 3588 3200 3247 
Q 3497 2906 3497 2266 
L 3497 0 
z
" transform="scale(0.015625)"/>
       <path id="Verdana-63" d="M 3159 219 
Q 2866 78 2602 0 
Q 2338 -78 2041 -78 
Q 1663 -78 1347 33 
Q 1031 144 806 369 
Q 578 594 453 937 
Q 328 1281 328 1741 
Q 328 2597 798 3084 
Q 1269 3572 2041 3572 
Q 2341 3572 2630 3487 
Q 2919 3403 3159 3281 
L 3159 2628 
L 3128 2628 
Q 2859 2838 2573 2950 
Q 2288 3063 2016 3063 
Q 1516 3063 1227 2727 
Q 938 2391 938 1741 
Q 938 1109 1220 770 
Q 1503 431 2016 431 
Q 2194 431 2378 478 
Q 2563 525 2709 600 
Q 2838 666 2950 739 
Q 3063 813 3128 866 
L 3159 866 
L 3159 219 
z
" transform="scale(0.015625)"/>
       <path id="Verdana-65" d="M 3500 1684 
L 928 1684 
Q 928 1363 1025 1123 
Q 1122 884 1291 731 
Q 1453 581 1676 506 
Q 1900 431 2169 431 
Q 2525 431 2886 573 
Q 3247 716 3400 853 
L 3431 853 
L 3431 213 
Q 3134 88 2825 3 
Q 2516 -81 2175 -81 
Q 1306 -81 818 389 
Q 331 859 331 1725 
Q 331 2581 798 3084 
Q 1266 3588 2028 3588 
Q 2734 3588 3117 3175 
Q 3500 2763 3500 2003 
L 3500 1684 
z
M 2928 2134 
Q 2925 2597 2695 2850 
Q 2466 3103 1997 3103 
Q 1525 3103 1245 2825 
Q 966 2547 928 2134 
L 2928 2134 
z
" transform="scale(0.015625)"/>
       <path id="Verdana-20" transform="scale(0.015625)"/>
       <path id="Verdana-62" d="M 3650 1772 
Q 3650 1334 3526 984 
Q 3403 634 3194 397 
Q 2972 150 2706 26 
Q 2441 -97 2122 -97 
Q 1825 -97 1603 -26 
Q 1381 44 1166 163 
L 1128 0 
L 578 0 
L 578 4863 
L 1166 4863 
L 1166 3125 
Q 1413 3328 1691 3458 
Q 1969 3588 2316 3588 
Q 2934 3588 3292 3113 
Q 3650 2638 3650 1772 
z
M 3044 1756 
Q 3044 2381 2837 2704 
Q 2631 3028 2172 3028 
Q 1916 3028 1653 2917 
Q 1391 2806 1166 2631 
L 1166 631 
Q 1416 519 1595 475 
Q 1775 431 2003 431 
Q 2491 431 2767 751 
Q 3044 1072 3044 1756 
z
" transform="scale(0.015625)"/>
       <path id="Verdana-77" d="M 4969 3491 
L 4059 0 
L 3516 0 
L 2619 2691 
L 1728 0 
L 1188 0 
L 269 3491 
L 881 3491 
L 1522 788 
L 2394 3491 
L 2878 3491 
L 3772 788 
L 4378 3491 
L 4969 3491 
z
" transform="scale(0.015625)"/>
       <path id="Verdana-75" d="M 3472 0 
L 2884 0 
L 2884 388 
Q 2588 153 2316 28 
Q 2044 -97 1716 -97 
Q 1166 -97 859 239 
Q 553 575 553 1225 
L 553 3491 
L 1141 3491 
L 1141 1503 
Q 1141 1238 1166 1048 
Q 1191 859 1272 725 
Q 1356 588 1490 525 
Q 1625 463 1881 463 
Q 2109 463 2379 581 
Q 2650 700 2884 884 
L 2884 3491 
L 3472 3491 
L 3472 0 
z
" transform="scale(0.015625)"/>
       <path id="Verdana-64" d="M 3409 0 
L 2822 0 
L 2822 366 
Q 2569 147 2294 25 
Q 2019 -97 1697 -97 
Q 1072 -97 705 384 
Q 338 866 338 1719 
Q 338 2163 464 2509 
Q 591 2856 806 3100 
Q 1019 3338 1301 3463 
Q 1584 3588 1888 3588 
Q 2163 3588 2375 3530 
Q 2588 3472 2822 3350 
L 2822 4863 
L 3409 4863 
L 3409 0 
z
M 2822 859 
L 2822 2863 
Q 2584 2969 2396 3009 
Q 2209 3050 1988 3050 
Q 1494 3050 1219 2706 
Q 944 2363 944 1731 
Q 944 1109 1156 786 
Q 1369 463 1838 463 
Q 2088 463 2344 573 
Q 2600 684 2822 859 
z
" transform="scale(0.015625)"/>
       <path id="Verdana-27" d="M 1206 4863 
L 1072 3053 
L 647 3053 
L 513 4863 
L 1206 4863 
z
" transform="scale(0.015625)"/>
       <path id="Verdana-68" d="M 3497 0 
L 2909 0 
L 2909 1988 
Q 2909 2228 2881 2439 
Q 2853 2650 2778 2769 
Q 2700 2900 2553 2964 
Q 2406 3028 2172 3028 
Q 1931 3028 1668 2909 
Q 1406 2791 1166 2606 
L 1166 0 
L 578 0 
L 578 4863 
L 1166 4863 
L 1166 3103 
Q 1441 3331 1734 3459 
Q 2028 3588 2338 3588 
Q 2903 3588 3200 3247 
Q 3497 2906 3497 2266 
L 3497 0 
z
" transform="scale(0.015625)"/>
       <path id="Verdana-6f" d="M 3553 1744 
Q 3553 891 3115 397 
Q 2678 -97 1944 -97 
Q 1203 -97 767 397 
Q 331 891 331 1744 
Q 331 2597 767 3092 
Q 1203 3588 1944 3588 
Q 2678 3588 3115 3092 
Q 3553 2597 3553 1744 
z
M 2947 1744 
Q 2947 2422 2681 2751 
Q 2416 3081 1944 3081 
Q 1466 3081 1202 2751 
Q 938 2422 938 1744 
Q 938 1088 1203 748 
Q 1469 409 1944 409 
Q 2413 409 2680 745 
Q 2947 1081 2947 1744 
z
" transform="scale(0.015625)"/>
       <path id="Verdana-6d" d="M 5672 0 
L 5084 0 
L 5084 1988 
Q 5084 2213 5064 2422 
Q 5044 2631 4978 2756 
Q 4906 2891 4772 2959 
Q 4638 3028 4384 3028 
Q 4138 3028 3891 2904 
Q 3644 2781 3397 2591 
Q 3406 2519 3412 2423 
Q 3419 2328 3419 2234 
L 3419 0 
L 2831 0 
L 2831 1988 
Q 2831 2219 2811 2426 
Q 2791 2634 2725 2759 
Q 2653 2894 2518 2961 
Q 2384 3028 2131 3028 
Q 1891 3028 1648 2909 
Q 1406 2791 1166 2606 
L 1166 0 
L 578 0 
L 578 3491 
L 1166 3491 
L 1166 3103 
Q 1441 3331 1714 3459 
Q 1988 3588 2297 3588 
Q 2653 3588 2901 3438 
Q 3150 3288 3272 3022 
Q 3628 3322 3922 3455 
Q 4216 3588 4550 3588 
Q 5125 3588 5398 3239 
Q 5672 2891 5672 2266 
L 5672 0 
z
" transform="scale(0.015625)"/>
       <path id="Verdana-28" d="M 2447 -1288 
L 1731 -1288 
Q 1178 -653 872 97 
Q 566 847 566 1788 
Q 566 2728 872 3478 
Q 1178 4228 1731 4863 
L 2447 4863 
L 2447 4831 
Q 2194 4603 1964 4304 
Q 1734 4006 1538 3609 
Q 1350 3225 1233 2762 
Q 1116 2300 1116 1788 
Q 1116 1253 1230 809 
Q 1344 366 1538 -34 
Q 1725 -419 1965 -730 
Q 2206 -1041 2447 -1256 
L 2447 -1288 
z
" transform="scale(0.015625)"/>
       <path id="Verdana-6b" d="M 3747 0 
L 2972 0 
L 1572 1528 
L 1191 1166 
L 1191 0 
L 603 0 
L 603 4863 
L 1191 4863 
L 1191 1744 
L 2888 3491 
L 3628 3491 
L 2006 1878 
L 3747 0 
z
" transform="scale(0.015625)"/>
       <path id="Verdana-29" d="M 2341 1788 
Q 2341 847 2034 97 
Q 1728 -653 1175 -1288 
L 459 -1288 
L 459 -1256 
Q 700 -1041 942 -730 
Q 1184 -419 1369 -34 
Q 1563 366 1677 809 
Q 1791 1253 1791 1788 
Q 1791 2300 1675 2762 
Q 1559 3225 1369 3609 
Q 1172 4006 942 4304 
Q 713 4603 459 4831 
L 459 4863 
L 1175 4863 
Q 1728 4228 2034 3478 
Q 2341 2728 2341 1788 
z
" transform="scale(0.015625)"/>
      </defs>
      <use xlink:href="#Verdana-44"/>
      <use xlink:href="#Verdana-69" x="77.050781"/>
      <use xlink:href="#Verdana-73" x="104.492188"/>
      <use xlink:href="#Verdana-74" x="156.591797"/>
      <use xlink:href="#Verdana-61" x="195.996094"/>
      <use xlink:href="#Verdana-6e" x="256.054688"/>
      <use xlink:href="#Verdana-63" x="319.335938"/>
      <use xlink:href="#Verdana-65" x="371.435547"/>
      <use xlink:href="#Verdana-20" x="431.005859"/>
      <use xlink:href="#Verdana-62" x="466.162109"/>
      <use xlink:href="#Verdana-65" x="528.466797"/>
      <use xlink:href="#Verdana-74" x="588.037109"/>
      <use xlink:href="#Verdana-77" x="627.441406"/>
      <use xlink:href="#Verdana-65" x="709.277344"/>
      <use xlink:href="#Verdana-65" x="768.847656"/>
      <use xlink:href="#Verdana-6e" x="828.417969"/>
      <use xlink:href="#Verdana-20" x="891.699219"/>
      <use xlink:href="#Verdana-73" x="926.855469"/>
      <use xlink:href="#Verdana-74" x="978.955078"/>
      <use xlink:href="#Verdana-75" x="1018.359375"/>
      <use xlink:href="#Verdana-64" x="1081.640625"/>
      <use xlink:href="#Verdana-65" x="1143.945312"/>
      <use xlink:href="#Verdana-6e" x="1203.515625"/>
      <use xlink:href="#Verdana-74" x="1266.796875"/>
      <use xlink:href="#Verdana-73" x="1306.201172"/>
      <use xlink:href="#Verdana-27" x="1358.300781"/>
      <use xlink:href="#Verdana-73" x="1385.15625"/>
      <use xlink:href="#Verdana-20" x="1437.255859"/>
      <use xlink:href="#Verdana-68" x="1472.412109"/>
      <use xlink:href="#Verdana-6f" x="1535.693359"/>
      <use xlink:href="#Verdana-6d" x="1596.386719"/>
      <use xlink:href="#Verdana-65" x="1693.652344"/>
      <use xlink:href="#Verdana-73" x="1753.222656"/>
      <use xlink:href="#Verdana-20" x="1805.322266"/>
      <use xlink:href="#Verdana-28" x="1840.478516"/>
      <use xlink:href="#Verdana-6b" x="1885.888672"/>
      <use xlink:href="#Verdana-6d" x="1945.068359"/>
      <use xlink:href="#Verdana-29" x="2042.333984"/>
     </g>
    </g>
   </g>
   <g id="matplotlib.axis_2">
    <g id="ytick_1">
     <g id="line2d_1">
      <path d="M 47.8965 236.392444 
L 392.363133 236.392444 
" clip-path="url(#p59a791da21)" style="fill: none; stroke: #d3d3d3; stroke-width: 0.8; stroke-linecap: round"/>
     </g>
     <g id="text_8">
      <!-- 0.0 -->
      <g style="fill: #484848" transform="translate(22.3276 240.404419) scale(0.1056 -0.1056)">
       <use xlink:href="#Verdana-30"/>
       <use xlink:href="#Verdana-2e" x="63.574219"/>
       <use xlink:href="#Verdana-30" x="99.951172"/>
      </g>
     </g>
    </g>
    <g id="ytick_2">
     <g id="line2d_2">
      <path d="M 47.8965 193.504635 
L 392.363133 193.504635 
" clip-path="url(#p59a791da21)" style="fill: none; stroke: #d3d3d3; stroke-width: 0.8; stroke-linecap: round"/>
     </g>
     <g id="text_9">
      <!-- 0.5 -->
      <g style="fill: #484848" transform="translate(22.3276 197.51661) scale(0.1056 -0.1056)">
       <defs>
        <path id="Verdana-35" d="M 3616 1478 
Q 3616 1153 3497 856 
Q 3378 559 3172 356 
Q 2947 138 2636 20 
Q 2325 -97 1916 -97 
Q 1534 -97 1181 -17 
Q 828 63 584 175 
L 584 834 
L 628 834 
Q 884 672 1228 558 
Q 1572 444 1903 444 
Q 2125 444 2333 506 
Q 2541 569 2703 725 
Q 2841 859 2911 1046 
Q 2981 1234 2981 1481 
Q 2981 1722 2898 1887 
Q 2816 2053 2669 2153 
Q 2506 2272 2273 2320 
Q 2041 2369 1753 2369 
Q 1478 2369 1223 2331 
Q 969 2294 784 2256 
L 784 4653 
L 3584 4653 
L 3584 4106 
L 1388 4106 
L 1388 2869 
Q 1522 2881 1662 2887 
Q 1803 2894 1906 2894 
Q 2284 2894 2568 2830 
Q 2853 2766 3091 2603 
Q 3341 2431 3478 2159 
Q 3616 1888 3616 1478 
z
" transform="scale(0.015625)"/>
       </defs>
       <use xlink:href="#Verdana-30"/>
       <use xlink:href="#Verdana-2e" x="63.574219"/>
       <use xlink:href="#Verdana-35" x="99.951172"/>
      </g>
     </g>
    </g>
    <g id="ytick_3">
     <g id="line2d_3">
      <path d="M 47.8965 150.616826 
L 392.363133 150.616826 
" clip-path="url(#p59a791da21)" style="fill: none; stroke: #d3d3d3; stroke-width: 0.8; stroke-linecap: round"/>
     </g>
     <g id="text_10">
      <!-- 1.0 -->
      <g style="fill: #484848" transform="translate(22.3276 154.628801) scale(0.1056 -0.1056)">
       <use xlink:href="#Verdana-31"/>
       <use xlink:href="#Verdana-2e" x="63.574219"/>
       <use xlink:href="#Verdana-30" x="99.951172"/>
      </g>
     </g>
    </g>
    <g id="ytick_4">
     <g id="line2d_4">
      <path d="M 47.8965 107.729018 
L 392.363133 107.729018 
" clip-path="url(#p59a791da21)" style="fill: none; stroke: #d3d3d3; stroke-width: 0.8; stroke-linecap: round"/>
     </g>
     <g id="text_11">
      <!-- 1.5 -->
      <g style="fill: #484848" transform="translate(22.3276 111.740993) scale(0.1056 -0.1056)">
       <use xlink:href="#Verdana-31"/>
       <use xlink:href="#Verdana-2e" x="63.574219"/>
       <use xlink:href="#Verdana-35" x="99.951172"/>
      </g>
     </g>
    </g>
    <g id="ytick_5">
     <g id="line2d_5">
      <path d="M 47.8965 64.841209 
L 392.363133 64.841209 
" clip-path="url(#p59a791da21)" style="fill: none; stroke: #d3d3d3; stroke-width: 0.8; stroke-linecap: round"/>
     </g>
     <g id="text_12">
      <!-- 2.0 -->
      <g style="fill: #484848" transform="translate(22.3276 68.853184) scale(0.1056 -0.1056)">
       <defs>
        <path id="Verdana-32" d="M 3653 0 
L 503 0 
L 503 653 
Q 831 934 1161 1215 
Q 1491 1497 1775 1775 
Q 2375 2356 2597 2698 
Q 2819 3041 2819 3438 
Q 2819 3800 2580 4004 
Q 2341 4209 1913 4209 
Q 1628 4209 1297 4109 
Q 966 4009 650 3803 
L 619 3803 
L 619 4459 
Q 841 4569 1211 4659 
Q 1581 4750 1928 4750 
Q 2644 4750 3050 4404 
Q 3456 4059 3456 3469 
Q 3456 3203 3389 2973 
Q 3322 2744 3191 2538 
Q 3069 2344 2905 2156 
Q 2741 1969 2506 1741 
Q 2172 1413 1815 1105 
Q 1459 797 1150 534 
L 3653 534 
L 3653 0 
z
" transform="scale(0.015625)"/>
       </defs>
       <use xlink:href="#Verdana-32"/>
       <use xlink:href="#Verdana-2e" x="63.574219"/>
       <use xlink:href="#Verdana-30" x="99.951172"/>
      </g>
     </g>
    </g>
    <g id="ytick_6">
     <g id="line2d_6">
      <path d="M 47.8965 21.9534 
L 392.363133 21.9534 
" clip-path="url(#p59a791da21)" style="fill: none; stroke: #d3d3d3; stroke-width: 0.8; stroke-linecap: round"/>
     </g>
     <g id="text_13">
      <!-- 2.5 -->
      <g style="fill: #484848" transform="translate(22.3276 25.965375) scale(0.1056 -0.1056)">
       <use xlink:href="#Verdana-32"/>
       <use xlink:href="#Verdana-2e" x="63.574219"/>
       <use xlink:href="#Verdana-35" x="99.951172"/>
      </g>
     </g>
    </g>
    <g id="text_14">
     <!-- Probability of co-infection (%) -->
     <g style="fill: #484848" transform="translate(16.0092 237.2502) rotate(-90) scale(0.1152 -0.1152)">
      <defs>
       <path id="Verdana-50" d="M 3669 3247 
Q 3669 2938 3561 2673 
Q 3453 2409 3259 2216 
Q 3019 1975 2691 1854 
Q 2363 1734 1863 1734 
L 1244 1734 
L 1244 0 
L 625 0 
L 625 4653 
L 1888 4653 
Q 2306 4653 2597 4583 
Q 2888 4513 3113 4363 
Q 3378 4184 3523 3918 
Q 3669 3653 3669 3247 
z
M 3025 3231 
Q 3025 3472 2940 3650 
Q 2856 3828 2684 3941 
Q 2534 4038 2342 4080 
Q 2150 4122 1856 4122 
L 1244 4122 
L 1244 2263 
L 1766 2263 
Q 2141 2263 2375 2330 
Q 2609 2397 2756 2544 
Q 2903 2694 2964 2859 
Q 3025 3025 3025 3231 
z
" transform="scale(0.015625)"/>
       <path id="Verdana-72" d="M 2756 2850 
L 2725 2850 
Q 2594 2881 2470 2895 
Q 2347 2909 2178 2909 
Q 1906 2909 1653 2789 
Q 1400 2669 1166 2478 
L 1166 0 
L 578 0 
L 578 3491 
L 1166 3491 
L 1166 2975 
Q 1516 3256 1783 3373 
Q 2050 3491 2328 3491 
Q 2481 3491 2550 3483 
Q 2619 3475 2756 3453 
L 2756 2850 
z
" transform="scale(0.015625)"/>
       <path id="Verdana-6c" d="M 1172 0 
L 584 0 
L 584 4863 
L 1172 4863 
L 1172 0 
z
" transform="scale(0.015625)"/>
       <path id="Verdana-79" d="M 3597 3491 
L 1559 -1288 
L 931 -1288 
L 1581 169 
L 191 3491 
L 828 3491 
L 1900 903 
L 2981 3491 
L 3597 3491 
z
" transform="scale(0.015625)"/>
       <path id="Verdana-66" d="M 2456 4294 
L 2425 4294 
Q 2328 4322 2172 4351 
Q 2016 4381 1897 4381 
Q 1519 4381 1348 4214 
Q 1178 4047 1178 3609 
L 1178 3491 
L 2238 3491 
L 2238 2997 
L 1197 2997 
L 1197 0 
L 609 0 
L 609 2997 
L 213 2997 
L 213 3491 
L 609 3491 
L 609 3606 
Q 609 4228 918 4561 
Q 1228 4894 1813 4894 
Q 2009 4894 2167 4875 
Q 2325 4856 2456 4831 
L 2456 4294 
z
" transform="scale(0.015625)"/>
       <path id="Verdana-25" d="M 2763 3363 
Q 2763 2663 2467 2322 
Q 2172 1981 1616 1981 
Q 1047 1981 756 2322 
Q 466 2663 466 3359 
Q 466 4059 762 4400 
Q 1059 4741 1616 4741 
Q 2181 4741 2472 4397 
Q 2763 4053 2763 3363 
z
M 4922 4653 
L 2484 0 
L 1969 0 
L 4406 4653 
L 4922 4653 
z
M 6422 1291 
Q 6422 591 6125 250 
Q 5828 -91 5272 -91 
Q 4706 -91 4415 253 
Q 4125 597 4125 1288 
Q 4125 1988 4420 2328 
Q 4716 2669 5272 2669 
Q 5841 2669 6131 2328 
Q 6422 1988 6422 1291 
z
M 2206 3363 
Q 2206 3900 2067 4112 
Q 1928 4325 1616 4325 
Q 1297 4325 1159 4112 
Q 1022 3900 1022 3359 
Q 1022 2819 1159 2608 
Q 1297 2397 1616 2397 
Q 1928 2397 2067 2608 
Q 2206 2819 2206 3363 
z
M 5866 1291 
Q 5866 1828 5727 2040 
Q 5588 2253 5275 2253 
Q 4956 2253 4818 2040 
Q 4681 1828 4681 1288 
Q 4681 747 4818 536 
Q 4956 325 5275 325 
Q 5588 325 5727 536 
Q 5866 747 5866 1291 
z
" transform="scale(0.015625)"/>
      </defs>
      <use xlink:href="#Verdana-50"/>
      <use xlink:href="#Verdana-72" x="60.302734"/>
      <use xlink:href="#Verdana-6f" x="102.978516"/>
      <use xlink:href="#Verdana-62" x="163.671875"/>
      <use xlink:href="#Verdana-61" x="225.976562"/>
      <use xlink:href="#Verdana-62" x="286.035156"/>
      <use xlink:href="#Verdana-69" x="348.339844"/>
      <use xlink:href="#Verdana-6c" x="375.78125"/>
      <use xlink:href="#Verdana-69" x="403.222656"/>
      <use xlink:href="#Verdana-74" x="430.664062"/>
      <use xlink:href="#Verdana-79" x="469.568359"/>
      <use xlink:href="#Verdana-20" x="528.748047"/>
      <use xlink:href="#Verdana-6f" x="563.904297"/>
      <use xlink:href="#Verdana-66" x="624.597656"/>
      <use xlink:href="#Verdana-20" x="659.753906"/>
      <use xlink:href="#Verdana-63" x="694.910156"/>
      <use xlink:href="#Verdana-6f" x="747.009766"/>
      <use xlink:href="#Verdana-2d" x="807.703125"/>
      <use xlink:href="#Verdana-69" x="853.113281"/>
      <use xlink:href="#Verdana-6e" x="880.554688"/>
      <use xlink:href="#Verdana-66" x="943.835938"/>
      <use xlink:href="#Verdana-65" x="978.992188"/>
      <use xlink:href="#Verdana-63" x="1038.5625"/>
      <use xlink:href="#Verdana-74" x="1090.662109"/>
      <use xlink:href="#Verdana-69" x="1130.066406"/>
      <use xlink:href="#Verdana-6f" x="1157.507812"/>
      <use xlink:href="#Verdana-6e" x="1218.201172"/>
      <use xlink:href="#Verdana-20" x="1281.482422"/>
      <use xlink:href="#Verdana-28" x="1316.638672"/>
      <use xlink:href="#Verdana-25" x="1362.048828"/>
      <use xlink:href="#Verdana-29" x="1469.666016"/>
     </g>
    </g>
   </g>
   <g id="LineCollection_1">
    <path d="M 53.870849 193.513799 
L 53.870849 71.444702 
" clip-path="url(#p59a791da21)" style="fill: none; stroke: #afaed4; stroke-width: 2"/>
    <path d="M 132.479099 201.811567 
L 132.479099 170.885085 
" clip-path="url(#p59a791da21)" style="fill: none; stroke: #afaed4; stroke-width: 2"/>
    <path d="M 189.840781 203.825217 
L 189.840781 191.449248 
" clip-path="url(#p59a791da21)" style="fill: none; stroke: #afaed4; stroke-width: 2"/>
    <path d="M 248.591199 194.105057 
L 248.591199 186.526904 
" clip-path="url(#p59a791da21)" style="fill: none; stroke: #afaed4; stroke-width: 2"/>
    <path d="M 315.566025 196.760751 
L 315.566025 185.80185 
" clip-path="url(#p59a791da21)" style="fill: none; stroke: #afaed4; stroke-width: 2"/>
    <path d="M 377.486065 195.049238 
L 377.486065 182.298095 
" clip-path="url(#p59a791da21)" style="fill: none; stroke: #afaed4; stroke-width: 2"/>
   </g>
   <g id="LineCollection_2">
    <path d="M 59.275304 182.426772 
L 59.275304 161.186247 
" clip-path="url(#p59a791da21)" style="fill: none; stroke: #8d89c0; stroke-width: 2"/>
    <path d="M 137.883554 184.560102 
L 137.883554 174.977726 
" clip-path="url(#p59a791da21)" style="fill: none; stroke: #8d89c0; stroke-width: 2"/>
    <path d="M 195.245237 186.457203 
L 195.245237 176.906359 
" clip-path="url(#p59a791da21)" style="fill: none; stroke: #8d89c0; stroke-width: 2"/>
    <path d="M 253.995655 190.15129 
L 253.995655 173.736872 
" clip-path="url(#p59a791da21)" style="fill: none; stroke: #8d89c0; stroke-width: 2"/>
    <path d="M 320.97048 204.989732 
L 320.97048 172.601096 
" clip-path="url(#p59a791da21)" style="fill: none; stroke: #8d89c0; stroke-width: 2"/>
    <path d="M 382.890521 212.961661 
L 382.890521 165.217766 
" clip-path="url(#p59a791da21)" style="fill: none; stroke: #8d89c0; stroke-width: 2"/>
   </g>
   <g id="LineCollection_3">
    <path d="M 64.209186 159.084838 
L 64.209186 106.546491 
" clip-path="url(#p59a791da21)" style="fill: none; stroke: #705eaa; stroke-width: 2"/>
    <path d="M 142.817436 153.148861 
L 142.817436 128.093633 
" clip-path="url(#p59a791da21)" style="fill: none; stroke: #705eaa; stroke-width: 2"/>
    <path d="M 200.179118 148.344675 
L 200.179118 121.784541 
" clip-path="url(#p59a791da21)" style="fill: none; stroke: #705eaa; stroke-width: 2"/>
    <path d="M 258.929537 191.177886 
L 258.929537 153.453278 
" clip-path="url(#p59a791da21)" style="fill: none; stroke: #705eaa; stroke-width: 2"/>
    <path clip-path="url(#p59a791da21)" style="fill: none; stroke: #705eaa; stroke-width: 2"/>
    <path clip-path="url(#p59a791da21)" style="fill: none; stroke: #705eaa; stroke-width: 2"/>
   </g>
   <g id="LineCollection_4">
    <path d="M 68.747917 120.54631 
L 68.747917 51.122689 
" clip-path="url(#p59a791da21)" style="fill: none; stroke: #572c92; stroke-width: 2"/>
    <path d="M 147.356167 117.562058 
L 147.356167 84.7568 
" clip-path="url(#p59a791da21)" style="fill: none; stroke: #572c92; stroke-width: 2"/>
    <path d="M 204.717849 106.850175 
L 204.717849 70.87774 
" clip-path="url(#p59a791da21)" style="fill: none; stroke: #572c92; stroke-width: 2"/>
    <path d="M 263.468268 136.551916 
L 263.468268 71.057789 
" clip-path="url(#p59a791da21)" style="fill: none; stroke: #572c92; stroke-width: 2"/>
    <path clip-path="url(#p59a791da21)" style="fill: none; stroke: #572c92; stroke-width: 2"/>
    <path clip-path="url(#p59a791da21)" style="fill: none; stroke: #572c92; stroke-width: 2"/>
   </g>
   <g id="line2d_7">
    <path d="M 53.870849 132.479251 
L 132.479099 186.348326 
L 189.840781 197.637232 
L 248.591199 190.315981 
L 315.566025 191.2813 
L 377.486065 188.673666 
" clip-path="url(#p59a791da21)" style="fill: none; stroke: #afaed4; stroke-width: 2; stroke-linecap: round"/>
   </g>
   <g id="line2d_8">
    <path d="M 59.275304 171.806509 
L 137.883554 179.768914 
L 195.245237 181.681781 
L 253.995655 181.944081 
L 320.97048 188.795414 
L 382.890521 189.089714 
" clip-path="url(#p59a791da21)" style="fill: none; stroke: #8d89c0; stroke-width: 2; stroke-linecap: round"/>
   </g>
   <g id="line2d_9">
    <path d="M 64.209186 132.815665 
L 142.817436 140.621247 
L 200.179118 135.064608 
L 258.929537 172.315582 
" clip-path="url(#p59a791da21)" style="fill: none; stroke: #705eaa; stroke-width: 2; stroke-linecap: round"/>
   </g>
   <g id="line2d_10">
    <path d="M 68.747917 85.8345 
L 147.356167 101.159429 
L 204.717849 88.863958 
L 263.468268 103.804853 
" clip-path="url(#p59a791da21)" style="fill: none; stroke: #572c92; stroke-width: 2; stroke-linecap: round"/>
   </g>
   <g id="text_15">
    <!-- (A) -->
    <g style="fill: #484848" transform="translate(47.8965 15.9534) scale(0.1152 -0.1152)">
     <defs>
      <path id="Verdana-41" d="M 4294 0 
L 3634 0 
L 3178 1297 
L 1166 1297 
L 709 0 
L 81 0 
L 1775 4653 
L 2600 4653 
L 4294 0 
z
M 2988 1828 
L 2172 4113 
L 1353 1828 
L 2988 1828 
z
" transform="scale(0.015625)"/>
     </defs>
     <use xlink:href="#Verdana-28"/>
     <use xlink:href="#Verdana-41" x="45.410156"/>
     <use xlink:href="#Verdana-29" x="113.769531"/>
    </g>
   </g>
   <g id="legend_1">
    <g id="LineCollection_5">
     <path d="M 267.900333 41.06535 
L 267.900333 30.50535 
" style="fill: none; stroke: #afaed4; stroke-width: 2"/>
    </g>
    <g id="line2d_11">
     <path d="M 257.340333 35.78535 
L 278.460333 35.78535 
" style="fill: none; stroke: #afaed4; stroke-width: 2; stroke-linecap: round"/>
    </g>
    <g id="line2d_12"/>
    <g id="text_16">
     <!-- Baseline -->
     <g style="fill: #484848" transform="translate(286.908333 39.48135) scale(0.1056 -0.1056)">
      <defs>
       <path id="Verdana-42" d="M 4134 1431 
Q 4134 1084 4003 818 
Q 3872 553 3650 381 
Q 3388 175 3073 87 
Q 2759 0 2275 0 
L 625 0 
L 625 4653 
L 2003 4653 
Q 2513 4653 2766 4615 
Q 3019 4578 3250 4459 
Q 3506 4325 3622 4114 
Q 3738 3903 3738 3609 
Q 3738 3278 3569 3045 
Q 3400 2813 3119 2672 
L 3119 2647 
Q 3591 2550 3862 2233 
Q 4134 1916 4134 1431 
z
M 3094 3528 
Q 3094 3697 3037 3812 
Q 2981 3928 2856 4000 
Q 2709 4084 2500 4104 
Q 2291 4125 1981 4125 
L 1244 4125 
L 1244 2781 
L 2044 2781 
Q 2334 2781 2506 2811 
Q 2678 2841 2825 2934 
Q 2972 3028 3033 3176 
Q 3094 3325 3094 3528 
z
M 3491 1406 
Q 3491 1688 3406 1853 
Q 3322 2019 3100 2134 
Q 2950 2213 2736 2236 
Q 2522 2259 2216 2259 
L 1244 2259 
L 1244 528 
L 2063 528 
Q 2469 528 2728 570 
Q 2988 613 3153 725 
Q 3328 847 3409 1003 
Q 3491 1159 3491 1406 
z
" transform="scale(0.015625)"/>
      </defs>
      <use xlink:href="#Verdana-42"/>
      <use xlink:href="#Verdana-61" x="68.554688"/>
      <use xlink:href="#Verdana-73" x="128.613281"/>
      <use xlink:href="#Verdana-65" x="180.712891"/>
      <use xlink:href="#Verdana-6c" x="240.283203"/>
      <use xlink:href="#Verdana-69" x="267.724609"/>
      <use xlink:href="#Verdana-6e" x="295.166016"/>
      <use xlink:href="#Verdana-65" x="358.447266"/>
     </g>
    </g>
    <g id="LineCollection_6">
     <path d="M 267.900333 56.4945 
L 267.900333 45.9345 
" style="fill: none; stroke: #8d89c0; stroke-width: 2"/>
    </g>
    <g id="line2d_13">
     <path d="M 257.340333 51.2145 
L 278.460333 51.2145 
" style="fill: none; stroke: #8d89c0; stroke-width: 2; stroke-linecap: round"/>
    </g>
    <g id="line2d_14"/>
    <g id="text_17">
     <!-- Same background -->
     <g style="fill: #484848" transform="translate(286.908333 54.9105) scale(0.1056 -0.1056)">
      <defs>
       <path id="Verdana-53" d="M 4006 1328 
Q 4006 1056 3879 790 
Q 3753 525 3525 341 
Q 3275 141 2942 28 
Q 2609 -84 2141 -84 
Q 1638 -84 1236 9 
Q 834 103 419 288 
L 419 1063 
L 463 1063 
Q 816 769 1278 609 
Q 1741 450 2147 450 
Q 2722 450 3042 665 
Q 3363 881 3363 1241 
Q 3363 1550 3211 1697 
Q 3059 1844 2750 1925 
Q 2516 1988 2242 2028 
Q 1969 2069 1663 2131 
Q 1044 2263 745 2580 
Q 447 2897 447 3406 
Q 447 3991 940 4364 
Q 1434 4738 2194 4738 
Q 2684 4738 3093 4644 
Q 3503 4550 3819 4413 
L 3819 3681 
L 3775 3681 
Q 3509 3906 3076 4054 
Q 2644 4203 2191 4203 
Q 1694 4203 1392 3997 
Q 1091 3791 1091 3466 
Q 1091 3175 1241 3009 
Q 1391 2844 1769 2756 
Q 1969 2713 2337 2650 
Q 2706 2588 2963 2522 
Q 3481 2384 3743 2106 
Q 4006 1828 4006 1328 
z
" transform="scale(0.015625)"/>
       <path id="Verdana-67" d="M 3409 397 
Q 3409 -491 3006 -906 
Q 2603 -1322 1766 -1322 
Q 1488 -1322 1223 -1283 
Q 959 -1244 703 -1172 
L 703 -572 
L 734 -572 
Q 878 -628 1190 -711 
Q 1503 -794 1816 -794 
Q 2116 -794 2312 -722 
Q 2509 -650 2619 -522 
Q 2728 -400 2775 -228 
Q 2822 -56 2822 156 
L 2822 475 
Q 2556 263 2314 158 
Q 2072 53 1697 53 
Q 1072 53 705 504 
Q 338 956 338 1778 
Q 338 2228 464 2554 
Q 591 2881 809 3119 
Q 1013 3341 1303 3464 
Q 1594 3588 1881 3588 
Q 2184 3588 2389 3527 
Q 2594 3466 2822 3341 
L 2859 3491 
L 3409 3491 
L 3409 397 
z
M 2822 959 
L 2822 2863 
Q 2588 2969 2386 3014 
Q 2184 3059 1984 3059 
Q 1500 3059 1222 2734 
Q 944 2409 944 1791 
Q 944 1203 1150 900 
Q 1356 597 1834 597 
Q 2091 597 2348 695 
Q 2606 794 2822 959 
z
" transform="scale(0.015625)"/>
      </defs>
      <use xlink:href="#Verdana-53"/>
      <use xlink:href="#Verdana-61" x="68.359375"/>
      <use xlink:href="#Verdana-6d" x="128.417969"/>
      <use xlink:href="#Verdana-65" x="225.683594"/>
      <use xlink:href="#Verdana-20" x="285.253906"/>
      <use xlink:href="#Verdana-62" x="320.410156"/>
      <use xlink:href="#Verdana-61" x="382.714844"/>
      <use xlink:href="#Verdana-63" x="442.773438"/>
      <use xlink:href="#Verdana-6b" x="494.873047"/>
      <use xlink:href="#Verdana-67" x="554.052734"/>
      <use xlink:href="#Verdana-72" x="616.357422"/>
      <use xlink:href="#Verdana-6f" x="659.033203"/>
      <use xlink:href="#Verdana-75" x="719.726562"/>
      <use xlink:href="#Verdana-6e" x="783.007812"/>
      <use xlink:href="#Verdana-64" x="846.289062"/>
     </g>
    </g>
    <g id="LineCollection_7">
     <path d="M 267.900333 71.97975 
L 267.900333 61.41975 
" style="fill: none; stroke: #705eaa; stroke-width: 2"/>
    </g>
    <g id="line2d_15">
     <path d="M 257.340333 66.69975 
L 278.460333 66.69975 
" style="fill: none; stroke: #705eaa; stroke-width: 2; stroke-linecap: round"/>
    </g>
    <g id="line2d_16"/>
    <g id="text_18">
     <!-- Same school -->
     <g style="fill: #484848" transform="translate(286.908333 70.39575) scale(0.1056 -0.1056)">
      <use xlink:href="#Verdana-53"/>
      <use xlink:href="#Verdana-61" x="68.359375"/>
      <use xlink:href="#Verdana-6d" x="128.417969"/>
      <use xlink:href="#Verdana-65" x="225.683594"/>
      <use xlink:href="#Verdana-20" x="285.253906"/>
      <use xlink:href="#Verdana-73" x="320.410156"/>
      <use xlink:href="#Verdana-63" x="372.509766"/>
      <use xlink:href="#Verdana-68" x="424.609375"/>
      <use xlink:href="#Verdana-6f" x="487.890625"/>
      <use xlink:href="#Verdana-6f" x="548.583984"/>
      <use xlink:href="#Verdana-6c" x="609.277344"/>
     </g>
    </g>
    <g id="LineCollection_8">
     <path d="M 267.900333 87.4089 
L 267.900333 76.8489 
" style="fill: none; stroke: #572c92; stroke-width: 2"/>
    </g>
    <g id="line2d_17">
     <path d="M 257.340333 82.1289 
L 278.460333 82.1289 
" style="fill: none; stroke: #572c92; stroke-width: 2; stroke-linecap: round"/>
    </g>
    <g id="line2d_18"/>
    <g id="text_19">
     <!-- Same program -->
     <g style="fill: #484848" transform="translate(286.908333 85.8249) scale(0.1056 -0.1056)">
      <defs>
       <path id="Verdana-70" d="M 3650 1788 
Q 3650 1363 3528 1011 
Q 3406 659 3184 416 
Q 2978 184 2698 57 
Q 2419 -69 2106 -69 
Q 1834 -69 1614 -9 
Q 1394 50 1166 175 
L 1166 -1288 
L 578 -1288 
L 578 3491 
L 1166 3491 
L 1166 3125 
Q 1400 3322 1692 3455 
Q 1984 3588 2316 3588 
Q 2947 3588 3298 3111 
Q 3650 2634 3650 1788 
z
M 3044 1772 
Q 3044 2403 2828 2715 
Q 2613 3028 2166 3028 
Q 1913 3028 1656 2918 
Q 1400 2809 1166 2631 
L 1166 653 
Q 1416 541 1595 500 
Q 1775 459 2003 459 
Q 2494 459 2769 790 
Q 3044 1122 3044 1772 
z
" transform="scale(0.015625)"/>
      </defs>
      <use xlink:href="#Verdana-53"/>
      <use xlink:href="#Verdana-61" x="68.359375"/>
      <use xlink:href="#Verdana-6d" x="128.417969"/>
      <use xlink:href="#Verdana-65" x="225.683594"/>
      <use xlink:href="#Verdana-20" x="285.253906"/>
      <use xlink:href="#Verdana-70" x="320.410156"/>
      <use xlink:href="#Verdana-72" x="382.714844"/>
      <use xlink:href="#Verdana-6f" x="425.390625"/>
      <use xlink:href="#Verdana-67" x="486.083984"/>
      <use xlink:href="#Verdana-72" x="548.388672"/>
      <use xlink:href="#Verdana-61" x="589.314453"/>
      <use xlink:href="#Verdana-6d" x="649.373047"/>
     </g>
    </g>
   </g>
  </g>
  <g id="axes_2">
   <g id="patch_3">
    <path d="M 510.484733 150.2774 
L 700.755289 150.2774 
L 700.755289 21.9534 
L 510.484733 21.9534 
z
" style="fill: #ffffff"/>
   </g>
   <g id="matplotlib.axis_3">
    <g id="xtick_25">
     <g id="text_20">
      <!-- 0 -->
      <g style="fill: #484848" transform="translate(507.127808 166.60135) scale(0.1056 -0.1056)">
       <use xlink:href="#Verdana-30"/>
      </g>
     </g>
    </g>
    <g id="xtick_26">
     <g id="text_21">
      <!-- 50 -->
      <g style="fill: #484848" transform="translate(540.342244 166.60135) scale(0.1056 -0.1056)">
       <use xlink:href="#Verdana-35"/>
       <use xlink:href="#Verdana-30" x="63.574219"/>
      </g>
     </g>
    </g>
    <g id="xtick_27">
     <g id="text_22">
      <!-- 100 -->
      <g style="fill: #484848" transform="translate(573.556679 166.60135) scale(0.1056 -0.1056)">
       <use xlink:href="#Verdana-31"/>
       <use xlink:href="#Verdana-30" x="63.574219"/>
       <use xlink:href="#Verdana-30" x="127.148438"/>
      </g>
     </g>
    </g>
    <g id="xtick_28">
     <g id="text_23">
      <!-- 150 -->
      <g style="fill: #484848" transform="translate(610.12804 166.60135) scale(0.1056 -0.1056)">
       <use xlink:href="#Verdana-31"/>
       <use xlink:href="#Verdana-35" x="63.574219"/>
       <use xlink:href="#Verdana-30" x="127.148438"/>
      </g>
     </g>
    </g>
    <g id="xtick_29">
     <g id="text_24">
      <!-- 200 -->
      <g style="fill: #484848" transform="translate(646.6994 166.60135) scale(0.1056 -0.1056)">
       <use xlink:href="#Verdana-32"/>
       <use xlink:href="#Verdana-30" x="63.574219"/>
       <use xlink:href="#Verdana-30" x="127.148438"/>
      </g>
     </g>
    </g>
    <g id="xtick_30">
     <g id="text_25">
      <!-- 250 -->
      <g style="fill: #484848" transform="translate(683.270761 166.60135) scale(0.1056 -0.1056)">
       <use xlink:href="#Verdana-32"/>
       <use xlink:href="#Verdana-35" x="63.574219"/>
       <use xlink:href="#Verdana-30" x="127.148438"/>
      </g>
     </g>
    </g>
    <g id="text_26">
     <!-- Increase in co-infection rate (%) -->
     <g style="fill: #484848" transform="translate(510.484733 181.53575) scale(0.1152 -0.1152)">
      <defs>
       <path id="Verdana-49" d="M 2266 0 
L 428 0 
L 428 475 
L 1038 475 
L 1038 4178 
L 428 4178 
L 428 4653 
L 2266 4653 
L 2266 4178 
L 1656 4178 
L 1656 475 
L 2266 475 
L 2266 0 
z
" transform="scale(0.015625)"/>
      </defs>
      <use xlink:href="#Verdana-49"/>
      <use xlink:href="#Verdana-6e" x="42.089844"/>
      <use xlink:href="#Verdana-63" x="105.371094"/>
      <use xlink:href="#Verdana-72" x="157.470703"/>
      <use xlink:href="#Verdana-65" x="200.146484"/>
      <use xlink:href="#Verdana-61" x="259.716797"/>
      <use xlink:href="#Verdana-73" x="319.775391"/>
      <use xlink:href="#Verdana-65" x="371.875"/>
      <use xlink:href="#Verdana-20" x="431.445312"/>
      <use xlink:href="#Verdana-69" x="466.601562"/>
      <use xlink:href="#Verdana-6e" x="494.042969"/>
      <use xlink:href="#Verdana-20" x="557.324219"/>
      <use xlink:href="#Verdana-63" x="592.480469"/>
      <use xlink:href="#Verdana-6f" x="644.580078"/>
      <use xlink:href="#Verdana-2d" x="705.273438"/>
      <use xlink:href="#Verdana-69" x="750.683594"/>
      <use xlink:href="#Verdana-6e" x="778.125"/>
      <use xlink:href="#Verdana-66" x="841.40625"/>
      <use xlink:href="#Verdana-65" x="876.5625"/>
      <use xlink:href="#Verdana-63" x="936.132812"/>
      <use xlink:href="#Verdana-74" x="988.232422"/>
      <use xlink:href="#Verdana-69" x="1027.636719"/>
      <use xlink:href="#Verdana-6f" x="1055.078125"/>
      <use xlink:href="#Verdana-6e" x="1115.771484"/>
      <use xlink:href="#Verdana-20" x="1179.052734"/>
      <use xlink:href="#Verdana-72" x="1214.208984"/>
      <use xlink:href="#Verdana-61" x="1255.134766"/>
      <use xlink:href="#Verdana-74" x="1315.193359"/>
      <use xlink:href="#Verdana-65" x="1354.597656"/>
      <use xlink:href="#Verdana-20" x="1414.167969"/>
      <use xlink:href="#Verdana-28" x="1449.324219"/>
      <use xlink:href="#Verdana-25" x="1494.734375"/>
      <use xlink:href="#Verdana-29" x="1602.351562"/>
     </g>
    </g>
   </g>
   <g id="matplotlib.axis_4">
    <g id="ytick_7">
     <g id="text_27">
      <!-- Different school -->
      <g style="fill: #484848" transform="translate(418.681533 131.791011) scale(0.1056 -0.1056)">
       <use xlink:href="#Verdana-44"/>
       <use xlink:href="#Verdana-69" x="77.050781"/>
       <use xlink:href="#Verdana-66" x="104.492188"/>
       <use xlink:href="#Verdana-66" x="139.648438"/>
       <use xlink:href="#Verdana-65" x="174.804688"/>
       <use xlink:href="#Verdana-72" x="234.375"/>
       <use xlink:href="#Verdana-65" x="277.050781"/>
       <use xlink:href="#Verdana-6e" x="336.621094"/>
       <use xlink:href="#Verdana-74" x="399.902344"/>
       <use xlink:href="#Verdana-20" x="439.306641"/>
       <use xlink:href="#Verdana-73" x="474.462891"/>
       <use xlink:href="#Verdana-63" x="526.5625"/>
       <use xlink:href="#Verdana-68" x="578.662109"/>
       <use xlink:href="#Verdana-6f" x="641.943359"/>
       <use xlink:href="#Verdana-6f" x="702.636719"/>
       <use xlink:href="#Verdana-6c" x="763.330078"/>
      </g>
     </g>
    </g>
    <g id="ytick_8">
     <g id="text_28">
      <!-- Same school -->
      <g style="fill: #484848" transform="translate(434.948883 85.027225) scale(0.1056 -0.1056)">
       <use xlink:href="#Verdana-53"/>
       <use xlink:href="#Verdana-61" x="68.359375"/>
       <use xlink:href="#Verdana-6d" x="128.417969"/>
       <use xlink:href="#Verdana-65" x="225.683594"/>
       <use xlink:href="#Verdana-20" x="285.253906"/>
       <use xlink:href="#Verdana-73" x="320.410156"/>
       <use xlink:href="#Verdana-63" x="372.509766"/>
       <use xlink:href="#Verdana-68" x="424.609375"/>
       <use xlink:href="#Verdana-6f" x="487.890625"/>
       <use xlink:href="#Verdana-6f" x="548.583984"/>
       <use xlink:href="#Verdana-6c" x="609.277344"/>
      </g>
      <!--  different program -->
      <g style="fill: #484848" transform="translate(404.913933 96.842545) scale(0.1056 -0.1056)">
       <use xlink:href="#Verdana-20"/>
       <use xlink:href="#Verdana-64" x="35.15625"/>
       <use xlink:href="#Verdana-69" x="97.460938"/>
       <use xlink:href="#Verdana-66" x="124.902344"/>
       <use xlink:href="#Verdana-66" x="160.058594"/>
       <use xlink:href="#Verdana-65" x="195.214844"/>
       <use xlink:href="#Verdana-72" x="254.785156"/>
       <use xlink:href="#Verdana-65" x="297.460938"/>
       <use xlink:href="#Verdana-6e" x="357.03125"/>
       <use xlink:href="#Verdana-74" x="420.3125"/>
       <use xlink:href="#Verdana-20" x="459.716797"/>
       <use xlink:href="#Verdana-70" x="494.873047"/>
       <use xlink:href="#Verdana-72" x="557.177734"/>
       <use xlink:href="#Verdana-6f" x="599.853516"/>
       <use xlink:href="#Verdana-67" x="660.546875"/>
       <use xlink:href="#Verdana-72" x="722.851562"/>
       <use xlink:href="#Verdana-61" x="763.777344"/>
       <use xlink:href="#Verdana-6d" x="823.835938"/>
      </g>
     </g>
    </g>
    <g id="ytick_9">
     <g id="text_29">
      <!-- Same program -->
      <g style="fill: #484848" transform="translate(423.337833 48.435689) scale(0.1056 -0.1056)">
       <use xlink:href="#Verdana-53"/>
       <use xlink:href="#Verdana-61" x="68.359375"/>
       <use xlink:href="#Verdana-6d" x="128.417969"/>
       <use xlink:href="#Verdana-65" x="225.683594"/>
       <use xlink:href="#Verdana-20" x="285.253906"/>
       <use xlink:href="#Verdana-70" x="320.410156"/>
       <use xlink:href="#Verdana-72" x="382.714844"/>
       <use xlink:href="#Verdana-6f" x="425.390625"/>
       <use xlink:href="#Verdana-67" x="486.083984"/>
       <use xlink:href="#Verdana-72" x="548.388672"/>
       <use xlink:href="#Verdana-61" x="589.314453"/>
       <use xlink:href="#Verdana-6d" x="649.373047"/>
      </g>
     </g>
    </g>
   </g>
   <g id="patch_4">
    <path d="M 510.484733 144.444491 
L 529.000215 144.444491 
L 529.000215 111.113582 
L 510.484733 111.113582 
z
" clip-path="url(#pfedb19f855)" style="fill: #8d89c0; stroke: #ffffff; stroke-width: 0.8; stroke-linejoin: miter"/>
   </g>
   <g id="patch_5">
    <path d="M 510.484733 102.780855 
L 591.348344 102.780855 
L 591.348344 69.449945 
L 510.484733 69.449945 
z
" clip-path="url(#pfedb19f855)" style="fill: #705eaa; stroke: #ffffff; stroke-width: 0.8; stroke-linejoin: miter"/>
   </g>
   <g id="patch_6">
    <path d="M 510.484733 61.117218 
L 666.386101 61.117218 
L 666.386101 27.786309 
L 510.484733 27.786309 
z
" clip-path="url(#pfedb19f855)" style="fill: #572c92; stroke: #ffffff; stroke-width: 0.8; stroke-linejoin: miter"/>
   </g>
   <g id="line2d_19">
    <path d="M 521.318778 127.779036 
L 537.618674 127.779036 
" clip-path="url(#pfedb19f855)" style="fill: none; stroke: #a9a9a9; stroke-width: 2; stroke-linecap: round"/>
   </g>
   <g id="line2d_20">
    <path d="M 575.645606 86.1154 
L 609.252659 86.1154 
" clip-path="url(#pfedb19f855)" style="fill: none; stroke: #a9a9a9; stroke-width: 2; stroke-linecap: round"/>
   </g>
   <g id="line2d_21">
    <path d="M 644.476211 44.451764 
L 691.694786 44.451764 
" clip-path="url(#pfedb19f855)" style="fill: none; stroke: #a9a9a9; stroke-width: 2; stroke-linecap: round"/>
   </g>
   <g id="text_30">
    <!-- 25% -->
    <g style="fill: #8d89c0" transform="translate(530.463069 125.766536) scale(0.1 -0.1)">
     <use xlink:href="#Verdana-32"/>
     <use xlink:href="#Verdana-35" x="63.574219"/>
     <use xlink:href="#Verdana-25" x="127.148438"/>
    </g>
   </g>
   <g id="text_31">
    <!-- 111% -->
    <g style="fill: #705eaa" transform="translate(592.811199 84.1029) scale(0.1 -0.1)">
     <use xlink:href="#Verdana-31"/>
     <use xlink:href="#Verdana-31" x="63.574219"/>
     <use xlink:href="#Verdana-31" x="127.148438"/>
     <use xlink:href="#Verdana-25" x="190.722656"/>
    </g>
   </g>
   <g id="text_32">
    <!-- 213% -->
    <g style="fill: #572c92" transform="translate(667.848955 42.439264) scale(0.1 -0.1)">
     <use xlink:href="#Verdana-32"/>
     <use xlink:href="#Verdana-31" x="63.574219"/>
     <use xlink:href="#Verdana-33" x="127.148438"/>
     <use xlink:href="#Verdana-25" x="190.722656"/>
    </g>
   </g>
   <g id="text_33">
    <!-- (B) -->
    <g style="fill: #484848" transform="translate(510.484733 15.9534) scale(0.1152 -0.1152)">
     <use xlink:href="#Verdana-28"/>
     <use xlink:href="#Verdana-42" x="45.410156"/>
     <use xlink:href="#Verdana-29" x="113.964844"/>
    </g>
   </g>
  </g>
 </g>
 <defs>
  <clipPath id="p59a791da21">
   <rect x="47.8965" y="21.9534" width="344.466633" height="215.2968"/>
  </clipPath>
  <clipPath id="pfedb19f855">
   <rect x="510.484733" y="21.9534" width="190.270556" height="128.324"/>
  </clipPath>
 </defs>
</svg>
